2026-04-05 16:39:17,139 - INFO - Inicio del proceso
2026-04-05 16:39:29,897 - INFO - Tamańo objetivo de segmento: 190.0 MB
2026-04-05 16:39:48,936 - INFO - FFmpeg y ffprobe encontrados
2026-04-05 16:39:48,938 - ERROR - Error en selector de archivos
2026-04-05 16:53:48,546 - INFO - Inicio del proceso
2026-04-05 16:53:59,747 - INFO - Tamańo objetivo de segmento: 190.0 MB
2026-04-05 16:53:59,969 - INFO - FFmpeg y ffprobe encontrados
2026-04-05 16:53:59,971 - ERROR - Error usando selector gráfico: Can't find a usable init.tcl in the following directories: 
    C:/Users/LENOVO/AppData/Local/Programs/Python/Python314/lib/tcl8.6 C:/lib/tcl8.6 C:/lib/tcl8.6 C:/library C:/library C:/tcl8.6.15/library C:/tcl8.6.15/library



This probably means that Tcl wasn't installed properly.

2026-04-05 16:56:08,395 - INFO - Archivo seleccionado: D:\03_SANDBOX\Testing_Software\SegmentadorVideo_PY
2026-04-05 16:56:08,488 - ERROR - Error obteniendo información del video
2026-04-05 17:04:23,296 - INFO - Inicio del proceso
2026-04-05 17:04:28,131 - INFO - Tamańo objetivo de segmento: 190.0 MB
2026-04-05 17:04:28,226 - INFO - FFmpeg y ffprobe encontrados
2026-04-05 17:04:28,228 - ERROR - Error usando selector gráfico: Can't find a usable init.tcl in the following directories: 
    C:/Users/LENOVO/AppData/Local/Programs/Python/Python314/lib/tcl8.6 C:/lib/tcl8.6 C:/lib/tcl8.6 C:/library C:/library C:/tcl8.6.15/library C:/tcl8.6.15/library



This probably means that Tcl wasn't installed properly.

2026-04-05 17:05:09,150 - INFO - Archivo seleccionado: D:\03_SANDBOX\Testing_Software\SegmentadorVideo_PY\260405.mp4
2026-04-05 17:05:09,255 - INFO - Duración video: 5935.5
2026-04-05 17:05:09,255 - INFO - Tamańo video: 3982.312867164612
2026-04-05 17:05:09,255 - INFO - Segment time: 283
2026-04-05 17:05:09,256 - INFO - Ejecutando FFmpeg
2026-04-05 17:05:09,325 - INFO - ffmpeg version N-123829-g69fc910777-20260404 Copyright (c) 2000-2026 the FFmpeg developers
2026-04-05 17:05:09,325 - INFO - built with gcc 15.2.0 (crosstool-NG 1.28.0.23_185f348)
2026-04-05 17:05:09,325 - INFO - configuration: --prefix=/ffbuild/prefix --pkg-config-flags=--static --pkg-config=pkg-config --cross-prefix=x86_64-w64-mingw32- --arch=x86_64 --target-os=mingw32 --enable-gpl --enable-version3 --disable-debug --enable-shared --disable-static --disable-w32threads --enable-pthreads --enable-iconv --enable-zlib --enable-libxml2 --enable-libvmaf --enable-fontconfig --enable-libharfbuzz --enable-libfreetype --enable-libfribidi --enable-vulkan --enable-libshaderc --enable-libvorbis --disable-libxcb --disable-xlib --disable-libpulse --enable-opencl --enable-gmp --enable-lzma --enable-liblcevc-dec --enable-amf --enable-libaom --enable-libaribb24 --enable-avisynth --enable-chromaprint --enable-libdav1d --enable-libdavs2 --enable-libdvdread --enable-libdvdnav --disable-libfdk-aac --enable-ffnvcodec --enable-cuda-llvm --enable-frei0r --enable-libgme --enable-libkvazaar --enable-libaribcaption --enable-libass --enable-libbluray --enable-libjxl --enable-libmp3lame --enable-libopus --enable-libplacebo --enable-librist --enable-libssh --enable-libtheora --enable-libvpx --enable-libwebp --enable-libzmq --enable-lv2 --enable-libvpl --enable-openal --enable-liboapv --enable-libopencore-amrnb --enable-libopencore-amrwb --enable-libopenh264 --enable-libopenjpeg --enable-libopenmpt --enable-librav1e --enable-librubberband --enable-schannel --enable-sdl2 --enable-libsnappy --enable-libsoxr --enable-libsrt --enable-libsvtav1 --enable-libtwolame --enable-libuavs3d --disable-libdrm --enable-vaapi --enable-libvidstab --enable-libvvenc --enable-whisper --enable-libx264 --enable-libx265 --enable-libxavs2 --enable-libxvid --enable-libzimg --enable-libzvbi --extra-cflags=-DLIBTWOLAME_STATIC --extra-cxxflags= --extra-libs=-lgomp --extra-ldflags=-pthread --extra-ldexeflags= --cc=x86_64-w64-mingw32-gcc --cxx=x86_64-w64-mingw32-g++ --ar=x86_64-w64-mingw32-gcc-ar --ranlib=x86_64-w64-mingw32-gcc-ranlib --nm=x86_64-w64-mingw32-gcc-nm --extra-version=20260404
2026-04-05 17:05:09,326 - INFO - libavutil      60. 29.100 / 60. 29.100
2026-04-05 17:05:09,326 - INFO - libavcodec     62. 29.101 / 62. 29.101
2026-04-05 17:05:09,326 - INFO - libavformat    62. 13.101 / 62. 13.101
2026-04-05 17:05:09,326 - INFO - libavdevice    62.  4.100 / 62.  4.100
2026-04-05 17:05:09,326 - INFO - libavfilter    11. 15.101 / 11. 15.101
2026-04-05 17:05:09,326 - INFO - libswscale      9.  7.100 /  9.  7.100
2026-04-05 17:05:09,326 - INFO - libswresample   6.  4.100 /  6.  4.100
2026-04-05 17:05:09,373 - INFO - Input #0, mov,mp4,m4a,3gp,3g2,mj2, from 'D:\03_SANDBOX\Testing_Software\SegmentadorVideo_PY\260405.mp4':
2026-04-05 17:05:09,373 - INFO - Metadata:
2026-04-05 17:05:09,373 - INFO - major_brand     : mp42
2026-04-05 17:05:09,373 - INFO - minor_version   : 0
2026-04-05 17:05:09,373 - INFO - compatible_brands: mp41isom
2026-04-05 17:05:09,374 - INFO - creation_time   : 2026-04-04T14:12:56.000000Z
2026-04-05 17:05:09,374 - INFO - Duration: 01:38:55.50, start: 0.000000, bitrate: 5628 kb/s
2026-04-05 17:05:09,374 - INFO - Stream #0:0[0x1](und): Video: h264 (Main) (avc1 / 0x31637661), yuv420p(progressive), 1438x900 [SAR 1:1 DAR 719:450], 5433 kb/s, 30 fps, 30 tbr, 30k tbn (default)
2026-04-05 17:05:09,374 - INFO - Metadata:
2026-04-05 17:05:09,374 - INFO - creation_time   : 2026-04-04T14:12:56.000000Z
2026-04-05 17:05:09,374 - INFO - handler_name    : VideoHandler
2026-04-05 17:05:09,374 - INFO - encoder         : AVC Coding
2026-04-05 17:05:09,374 - INFO - Stream #0:1[0x2](und): Audio: aac (LC) (mp4a / 0x6134706D), 48000 Hz, stereo, fltp, 192 kb/s (default)
2026-04-05 17:05:09,374 - INFO - Metadata:
2026-04-05 17:05:09,374 - INFO - creation_time   : 2026-04-04T14:12:56.000000Z
2026-04-05 17:05:09,374 - INFO - handler_name    : SoundHandler
2026-04-05 17:05:09,374 - INFO - Stream mapping:
2026-04-05 17:05:09,374 - INFO - Stream #0:0 -> #0:0 (copy)
2026-04-05 17:05:09,374 - INFO - Stream #0:1 -> #0:1 (copy)
2026-04-05 17:05:09,374 - INFO - [segment @ 000002c5f6677cc0] Opening 'D:\03_SANDBOX\Testing_Software\SegmentadorVideo_PY\260405_part000.mp4' for writing
2026-04-05 17:05:09,374 - INFO - Output #0, segment, to 'D:\03_SANDBOX\Testing_Software\SegmentadorVideo_PY\260405_part%03d.mp4':
2026-04-05 17:05:09,374 - INFO - Metadata:
2026-04-05 17:05:09,375 - INFO - major_brand     : mp42
2026-04-05 17:05:09,375 - INFO - minor_version   : 0
2026-04-05 17:05:09,375 - INFO - compatible_brands: mp41isom
2026-04-05 17:05:09,375 - INFO - encoder         : Lavf62.13.101
2026-04-05 17:05:09,375 - INFO - Stream #0:0(und): Video: h264 (Main) (avc1 / 0x31637661), yuv420p(progressive), 1438x900 [SAR 1:1 DAR 719:450], q=2-31, 5433 kb/s, 30 fps, 30 tbr, 30k tbn (default)
2026-04-05 17:05:09,375 - INFO - Metadata:
2026-04-05 17:05:09,375 - INFO - creation_time   : 2026-04-04T14:12:56.000000Z
2026-04-05 17:05:09,375 - INFO - handler_name    : VideoHandler
2026-04-05 17:05:09,375 - INFO - encoder         : AVC Coding
2026-04-05 17:05:09,375 - INFO - Stream #0:1(und): Audio: aac (LC) (mp4a / 0x6134706D), 48000 Hz, stereo, fltp, 192 kb/s (default)
2026-04-05 17:05:09,375 - INFO - Metadata:
2026-04-05 17:05:09,375 - INFO - creation_time   : 2026-04-04T14:12:56.000000Z
2026-04-05 17:05:09,375 - INFO - handler_name    : SoundHandler
2026-04-05 17:05:09,375 - INFO - Press [q] to stop, [?] for help
2026-04-05 17:05:09,709 - INFO - [segment @ 000002c5f6677cc0] Opening 'D:\03_SANDBOX\Testing_Software\SegmentadorVideo_PY\260405_part001.mp4' for writing
2026-04-05 17:05:10,071 - INFO - frame=12201 fps=0.0 q=-1.0 size=N/A time=00:06:46.46 bitrate=N/A speed= 786x elapsed=0:00:00.51
2026-04-05 17:05:10,071 - INFO - [segment @ 000002c5f6677cc0] Opening 'D:\03_SANDBOX\Testing_Software\SegmentadorVideo_PY\260405_part002.mp4' for writing
2026-04-05 17:05:10,417 - INFO - frame=25325 fps=24494 q=-1.0 size=N/A time=00:14:04.16 bitrate=N/A speed= 816x elapsed=0:00:01.03
2026-04-05 17:05:10,417 - INFO - [segment @ 000002c5f6677cc0] Opening 'D:\03_SANDBOX\Testing_Software\SegmentadorVideo_PY\260405_part003.mp4' for writing
2026-04-05 17:05:10,754 - INFO - [segment @ 000002c5f6677cc0] Opening 'D:\03_SANDBOX\Testing_Software\SegmentadorVideo_PY\260405_part004.mp4' for writing
2026-04-05 17:05:11,091 - INFO - frame=38016 fps=24568 q=-1.0 size=N/A time=00:21:07.03 bitrate=N/A speed= 819x elapsed=0:00:01.54
2026-04-05 17:05:11,091 - INFO - [segment @ 000002c5f6677cc0] Opening 'D:\03_SANDBOX\Testing_Software\SegmentadorVideo_PY\260405_part005.mp4' for writing
2026-04-05 17:05:11,412 - INFO - [segment @ 000002c5f6677cc0] Opening 'D:\03_SANDBOX\Testing_Software\SegmentadorVideo_PY\260405_part006.mp4' for writing
2026-04-05 17:05:11,742 - INFO - frame=51628 fps=24951 q=-1.0 size=N/A time=00:28:40.93 bitrate=N/A speed= 832x elapsed=0:00:02.06
2026-04-05 17:05:11,742 - INFO - [segment @ 000002c5f6677cc0] Opening 'D:\03_SANDBOX\Testing_Software\SegmentadorVideo_PY\260405_part007.mp4' for writing
2026-04-05 17:05:12,359 - INFO - frame=64617 fps=25019 q=-1.0 size=N/A time=00:35:53.90 bitrate=N/A speed= 834x elapsed=0:00:02.58
2026-04-05 17:05:12,360 - INFO - [segment @ 000002c5f6677cc0] Opening 'D:\03_SANDBOX\Testing_Software\SegmentadorVideo_PY\260405_part008.mp4' for writing
2026-04-05 17:05:12,984 - INFO - frame=68626 fps=22192 q=-1.0 size=N/A time=00:38:07.46 bitrate=N/A speed= 740x elapsed=0:00:03.09
2026-04-05 17:05:13,157 - INFO - frame=74153 fps=20548 q=-1.0 size=N/A time=00:41:11.90 bitrate=N/A speed= 685x elapsed=0:00:03.60
2026-04-05 17:05:13,157 - INFO - [segment @ 000002c5f6677cc0] Opening 'D:\03_SANDBOX\Testing_Software\SegmentadorVideo_PY\260405_part009.mp4' for writing
2026-04-05 17:05:14,016 - INFO - frame=78655 fps=19074 q=-1.0 size=N/A time=00:43:41.63 bitrate=N/A speed= 636x elapsed=0:00:04.12
2026-04-05 17:05:14,823 - INFO - frame=78828 fps=16986 q=-1.0 size=N/A time=00:43:47.60 bitrate=N/A speed= 566x elapsed=0:00:04.64
2026-04-05 17:05:15,044 - INFO - frame=78828 fps=15292 q=-1.0 size=N/A time=00:43:47.60 bitrate=N/A speed= 510x elapsed=0:00:05.15
2026-04-05 17:05:39,532 - INFO - frame=78939 fps=13927 q=-1.0 size=N/A time=00:43:51.30 bitrate=N/A speed= 464x elapsed=0:00:05.66
2026-04-05 17:05:39,532 - INFO - frame=78939 fps=12763 q=-1.0 size=N/A time=00:43:51.30 bitrate=N/A speed= 425x elapsed=0:00:06.18
2026-04-05 17:05:39,532 - INFO - frame=78939 fps=11760 q=-1.0 size=N/A time=00:43:51.30 bitrate=N/A speed= 392x elapsed=0:00:06.71
2026-04-05 17:05:39,532 - INFO - frame=78939 fps=10921 q=-1.0 size=N/A time=00:43:51.30 bitrate=N/A speed= 364x elapsed=0:00:07.22
2026-04-05 17:05:39,532 - INFO - frame=78939 fps=10193 q=-1.0 size=N/A time=00:43:51.30 bitrate=N/A speed= 340x elapsed=0:00:07.74
2026-04-05 17:05:39,533 - INFO - frame=78939 fps=9556 q=-1.0 size=N/A time=00:43:51.30 bitrate=N/A speed= 319x elapsed=0:00:08.26
2026-04-05 17:05:39,533 - INFO - frame=78939 fps=8981 q=-1.0 size=N/A time=00:43:51.30 bitrate=N/A speed= 299x elapsed=0:00:08.78
2026-04-05 17:05:39,533 - INFO - frame=78939 fps=8482 q=-1.0 size=N/A time=00:43:51.30 bitrate=N/A speed= 283x elapsed=0:00:09.30
2026-04-05 17:05:39,533 - INFO - frame=78939 fps=8038 q=-1.0 size=N/A time=00:43:51.30 bitrate=N/A speed= 268x elapsed=0:00:09.82
2026-04-05 17:05:39,533 - INFO - frame=78939 fps=7637 q=-1.0 size=N/A time=00:43:51.30 bitrate=N/A speed= 255x elapsed=0:00:10.33
2026-04-05 17:05:39,533 - INFO - frame=78939 fps=7275 q=-1.0 size=N/A time=00:43:51.30 bitrate=N/A speed= 242x elapsed=0:00:10.85
2026-04-05 17:05:39,534 - INFO - frame=78939 fps=6948 q=-1.0 size=N/A time=00:43:51.30 bitrate=N/A speed= 232x elapsed=0:00:11.36
2026-04-05 17:05:39,534 - INFO - frame=78939 fps=6647 q=-1.0 size=N/A time=00:43:51.30 bitrate=N/A speed= 222x elapsed=0:00:11.87
2026-04-05 17:05:39,534 - INFO - frame=78939 fps=6371 q=-1.0 size=N/A time=00:43:51.30 bitrate=N/A speed= 212x elapsed=0:00:12.39
2026-04-05 17:05:39,534 - INFO - frame=78939 fps=6116 q=-1.0 size=N/A time=00:43:51.30 bitrate=N/A speed= 204x elapsed=0:00:12.90
2026-04-05 17:05:39,534 - INFO - frame=78939 fps=5881 q=-1.0 size=N/A time=00:43:51.30 bitrate=N/A speed= 196x elapsed=0:00:13.42
2026-04-05 17:05:39,534 - INFO - frame=78939 fps=5665 q=-1.0 size=N/A time=00:43:51.30 bitrate=N/A speed= 189x elapsed=0:00:13.93
2026-04-05 17:05:39,535 - INFO - frame=78939 fps=5463 q=-1.0 size=N/A time=00:43:51.30 bitrate=N/A speed= 182x elapsed=0:00:14.45
2026-04-05 17:05:39,535 - INFO - frame=78939 fps=5275 q=-1.0 size=N/A time=00:43:51.30 bitrate=N/A speed= 176x elapsed=0:00:14.96
2026-04-05 17:05:39,535 - INFO - frame=78939 fps=5099 q=-1.0 size=N/A time=00:43:51.30 bitrate=N/A speed= 170x elapsed=0:00:15.48
2026-04-05 17:05:39,535 - INFO - frame=78939 fps=4934 q=-1.0 size=N/A time=00:43:51.30 bitrate=N/A speed= 164x elapsed=0:00:15.99
2026-04-05 17:05:39,535 - INFO - frame=78939 fps=4781 q=-1.0 size=N/A time=00:43:51.30 bitrate=N/A speed= 159x elapsed=0:00:16.51
2026-04-05 17:05:39,535 - INFO - frame=78939 fps=4632 q=-1.0 size=N/A time=00:43:51.30 bitrate=N/A speed= 154x elapsed=0:00:17.04
2026-04-05 17:05:39,536 - INFO - frame=78939 fps=4500 q=-1.0 size=N/A time=00:43:51.30 bitrate=N/A speed= 150x elapsed=0:00:17.54
2026-04-05 17:05:39,536 - INFO - frame=78939 fps=4371 q=-1.0 size=N/A time=00:43:51.30 bitrate=N/A speed= 146x elapsed=0:00:18.05
2026-04-05 17:05:39,536 - INFO - frame=78939 fps=4247 q=-1.0 size=N/A time=00:43:51.30 bitrate=N/A speed= 142x elapsed=0:00:18.58
2026-04-05 17:05:39,536 - INFO - frame=78939 fps=4134 q=-1.0 size=N/A time=00:43:51.30 bitrate=N/A speed= 138x elapsed=0:00:19.09
2026-04-05 17:05:39,536 - INFO - frame=78939 fps=4025 q=-1.0 size=N/A time=00:43:51.30 bitrate=N/A speed= 134x elapsed=0:00:19.60
2026-04-05 17:05:39,536 - INFO - frame=78939 fps=3922 q=-1.0 size=N/A time=00:43:51.30 bitrate=N/A speed= 131x elapsed=0:00:20.12
2026-04-05 17:05:39,537 - INFO - frame=78939 fps=3824 q=-1.0 size=N/A time=00:43:51.30 bitrate=N/A speed= 127x elapsed=0:00:20.64
2026-04-05 17:05:39,537 - INFO - frame=78939 fps=3732 q=-1.0 size=N/A time=00:43:51.30 bitrate=N/A speed= 124x elapsed=0:00:21.15
2026-04-05 17:05:39,537 - INFO - frame=78939 fps=3642 q=-1.0 size=N/A time=00:43:51.30 bitrate=N/A speed= 121x elapsed=0:00:21.67
2026-04-05 17:05:39,537 - INFO - frame=78939 fps=3558 q=-1.0 size=N/A time=00:43:51.30 bitrate=N/A speed= 119x elapsed=0:00:22.18
2026-04-05 17:05:39,537 - INFO - frame=78939 fps=3477 q=-1.0 size=N/A time=00:43:51.30 bitrate=N/A speed= 116x elapsed=0:00:22.70
2026-04-05 17:05:39,537 - INFO - frame=78939 fps=3400 q=-1.0 size=N/A time=00:43:51.30 bitrate=N/A speed= 113x elapsed=0:00:23.21
2026-04-05 17:05:39,538 - INFO - frame=78939 fps=3326 q=-1.0 size=N/A time=00:43:51.30 bitrate=N/A speed= 111x elapsed=0:00:23.73
2026-04-05 17:05:39,538 - INFO - frame=78939 fps=3255 q=-1.0 size=N/A time=00:43:51.30 bitrate=N/A speed= 109x elapsed=0:00:24.24
2026-04-05 17:05:39,538 - INFO - frame=78939 fps=3187 q=-1.0 size=N/A time=00:43:51.30 bitrate=N/A speed= 106x elapsed=0:00:24.76
2026-04-05 17:05:39,538 - INFO - frame=78939 fps=3122 q=-1.0 size=N/A time=00:43:51.30 bitrate=N/A speed= 104x elapsed=0:00:25.28
2026-04-05 17:05:39,539 - INFO - frame=78939 fps=3060 q=-1.0 size=N/A time=00:43:51.30 bitrate=N/A speed= 102x elapsed=0:00:25.79
2026-04-05 17:05:39,539 - INFO - frame=78939 fps=2999 q=-1.0 size=N/A time=00:43:51.30 bitrate=N/A speed= 100x elapsed=0:00:26.31
2026-04-05 17:05:40,053 - INFO - frame=78939 fps=2942 q=-1.0 size=N/A time=00:43:51.30 bitrate=N/A speed=98.1x elapsed=0:00:26.83
2026-04-05 17:05:40,566 - INFO - frame=80180 fps=2614 q=-1.0 size=N/A time=00:44:32.66 bitrate=N/A speed=87.1x elapsed=0:00:30.67
2026-04-05 17:05:41,076 - INFO - frame=81654 fps=2618 q=-1.0 size=N/A time=00:45:21.83 bitrate=N/A speed=87.3x elapsed=0:00:31.19
2026-04-05 17:05:41,593 - INFO - frame=82546 fps=2604 q=-1.0 size=N/A time=00:45:51.70 bitrate=N/A speed=86.8x elapsed=0:00:31.70
2026-04-05 17:05:42,112 - INFO - frame=83520 fps=2592 q=-1.0 size=N/A time=00:46:24.10 bitrate=N/A speed=86.4x elapsed=0:00:32.21
2026-04-05 17:05:42,433 - INFO - frame=84468 fps=2580 q=-1.0 size=N/A time=00:46:55.83 bitrate=N/A speed=  86x elapsed=0:00:32.73
2026-04-05 17:05:42,433 - INFO - [segment @ 000002c5f6677cc0] Opening 'D:\03_SANDBOX\Testing_Software\SegmentadorVideo_PY\260405_part010.mp4' for writing
2026-04-05 17:05:43,138 - INFO - frame=85318 fps=2566 q=-1.0 size=N/A time=00:47:23.86 bitrate=N/A speed=85.5x elapsed=0:00:33.24
2026-04-05 17:05:43,657 - INFO - frame=86731 fps=2569 q=-1.0 size=N/A time=00:48:11.03 bitrate=N/A speed=85.6x elapsed=0:00:33.76
2026-04-05 17:05:44,169 - INFO - frame=88062 fps=2569 q=-1.0 size=N/A time=00:48:55.40 bitrate=N/A speed=85.6x elapsed=0:00:34.28
2026-04-05 17:05:44,696 - INFO - frame=89727 fps=2579 q=-1.0 size=N/A time=00:49:50.93 bitrate=N/A speed=  86x elapsed=0:00:34.79
2026-04-05 17:05:45,211 - INFO - frame=90889 fps=2573 q=-1.0 size=N/A time=00:50:29.63 bitrate=N/A speed=85.8x elapsed=0:00:35.32
2026-04-05 17:05:45,724 - INFO - frame=90925 fps=2537 q=-1.0 size=N/A time=00:50:30.83 bitrate=N/A speed=84.6x elapsed=0:00:35.83
2026-04-05 17:05:46,236 - INFO - frame=90971 fps=2503 q=-1.0 size=N/A time=00:50:32.36 bitrate=N/A speed=83.4x elapsed=0:00:36.34
2026-04-05 17:05:46,750 - INFO - frame=91016 fps=2469 q=-1.0 size=N/A time=00:50:33.86 bitrate=N/A speed=82.3x elapsed=0:00:36.86
2026-04-05 17:05:47,264 - INFO - frame=91053 fps=2436 q=-1.0 size=N/A time=00:50:35.36 bitrate=N/A speed=81.2x elapsed=0:00:37.37
2026-04-05 17:05:47,790 - INFO - frame=91099 fps=2404 q=-1.0 size=N/A time=00:50:36.86 bitrate=N/A speed=80.2x elapsed=0:00:37.88
2026-04-05 17:05:48,304 - INFO - frame=91145 fps=2373 q=-1.0 size=N/A time=00:50:38.16 bitrate=N/A speed=79.1x elapsed=0:00:38.41
2026-04-05 17:05:48,763 - INFO - frame=91192 fps=2343 q=-1.0 size=N/A time=00:50:39.76 bitrate=N/A speed=78.1x elapsed=0:00:38.92
2026-04-05 17:05:48,764 - INFO - [segment @ 000002c5f6677cc0] Opening 'D:\03_SANDBOX\Testing_Software\SegmentadorVideo_PY\260405_part011.mp4' for writing
2026-04-05 17:05:49,255 - INFO - frame=94460 fps=2395 q=-1.0 size=N/A time=00:52:28.66 bitrate=N/A speed=79.8x elapsed=0:00:39.44
2026-04-05 17:05:49,255 - INFO - [segment @ 000002c5f6677cc0] Opening 'D:\03_SANDBOX\Testing_Software\SegmentadorVideo_PY\260405_part012.mp4' for writing
2026-04-05 17:05:49,737 - INFO - frame=103496 fps=2590 q=-1.0 size=N/A time=00:57:29.86 bitrate=N/A speed=86.3x elapsed=0:00:39.96
2026-04-05 17:05:49,737 - INFO - [segment @ 000002c5f6677cc0] Opening 'D:\03_SANDBOX\Testing_Software\SegmentadorVideo_PY\260405_part013.mp4' for writing
2026-04-05 17:05:50,368 - INFO - frame=112388 fps=2777 q=-1.0 size=N/A time=01:02:26.33 bitrate=N/A speed=92.6x elapsed=0:00:40.47
2026-04-05 17:05:50,423 - INFO - frame=118482 fps=2890 q=-1.0 size=N/A time=01:05:49.20 bitrate=N/A speed=96.3x elapsed=0:00:40.99
2026-04-05 17:05:50,424 - INFO - [segment @ 000002c5f6677cc0] Opening 'D:\03_SANDBOX\Testing_Software\SegmentadorVideo_PY\260405_part014.mp4' for writing
2026-04-05 17:05:51,401 - INFO - frame=120774 fps=2910 q=-1.0 size=N/A time=01:07:05.80 bitrate=N/A speed=  97x elapsed=0:00:41.50
2026-04-05 17:05:52,247 - INFO - frame=121026 fps=2880 q=-1.0 size=N/A time=01:07:14.43 bitrate=N/A speed=  96x elapsed=0:00:42.02
2026-04-05 17:05:52,421 - INFO - frame=121026 fps=2846 q=-1.0 size=N/A time=01:07:14.43 bitrate=N/A speed=94.9x elapsed=0:00:42.52
2026-04-05 17:05:53,184 - INFO - frame=121089 fps=2813 q=-1.0 size=N/A time=01:07:16.30 bitrate=N/A speed=93.8x elapsed=0:00:43.04
2026-04-05 17:05:53,465 - INFO - frame=121089 fps=2780 q=-1.0 size=N/A time=01:07:16.30 bitrate=N/A speed=92.7x elapsed=0:00:43.55
2026-04-05 17:05:53,993 - INFO - frame=121233 fps=2750 q=-1.0 size=N/A time=01:07:21.10 bitrate=N/A speed=91.7x elapsed=0:00:44.08
2026-04-05 17:05:54,509 - INFO - frame=121296 fps=2719 q=-1.0 size=N/A time=01:07:23.36 bitrate=N/A speed=90.6x elapsed=0:00:44.61
2026-04-05 17:05:55,021 - INFO - frame=121377 fps=2689 q=-1.0 size=N/A time=01:07:25.93 bitrate=N/A speed=89.6x elapsed=0:00:45.13
2026-04-05 17:05:55,534 - INFO - frame=121431 fps=2660 q=-1.0 size=N/A time=01:07:27.83 bitrate=N/A speed=88.7x elapsed=0:00:45.64
2026-04-05 17:05:56,436 - INFO - frame=121602 fps=2634 q=-1.0 size=N/A time=01:07:33.56 bitrate=N/A speed=87.8x elapsed=0:00:46.15
2026-04-05 17:05:56,565 - INFO - frame=121602 fps=2605 q=-1.0 size=N/A time=01:07:33.56 bitrate=N/A speed=86.8x elapsed=0:00:46.67
2026-04-05 17:05:57,580 - INFO - frame=121693 fps=2579 q=-1.0 size=N/A time=01:07:36.43 bitrate=N/A speed=  86x elapsed=0:00:47.18
2026-04-05 17:05:57,597 - INFO - frame=121693 fps=2551 q=-1.0 size=N/A time=01:07:36.43 bitrate=N/A speed=  85x elapsed=0:00:47.70
2026-04-05 17:05:58,384 - INFO - frame=121693 fps=2524 q=-1.0 size=N/A time=01:07:36.43 bitrate=N/A speed=84.1x elapsed=0:00:48.22
2026-04-05 17:05:58,626 - INFO - frame=121693 fps=2497 q=-1.0 size=N/A time=01:07:36.43 bitrate=N/A speed=83.2x elapsed=0:00:48.73
2026-04-05 17:05:59,140 - INFO - frame=121747 fps=2472 q=-1.0 size=N/A time=01:07:38.24 bitrate=N/A speed=82.4x elapsed=0:00:49.25
2026-04-05 17:05:59,659 - INFO - frame=123170 fps=2475 q=-1.0 size=N/A time=01:08:25.66 bitrate=N/A speed=82.5x elapsed=0:00:49.76
2026-04-05 17:06:00,175 - INFO - frame=124106 fps=2468 q=-1.0 size=N/A time=01:08:56.87 bitrate=N/A speed=82.3x elapsed=0:00:50.28
2026-04-05 17:06:00,693 - INFO - frame=125683 fps=2474 q=-1.0 size=N/A time=01:09:49.44 bitrate=N/A speed=82.5x elapsed=0:00:50.79
2026-04-05 17:06:00,747 - INFO - frame=127367 fps=2482 q=-1.0 size=N/A time=01:10:45.56 bitrate=N/A speed=82.7x elapsed=0:00:51.31
2026-04-05 17:06:00,748 - INFO - [segment @ 000002c5f6677cc0] Opening 'D:\03_SANDBOX\Testing_Software\SegmentadorVideo_PY\260405_part015.mp4' for writing
2026-04-05 17:06:01,729 - INFO - frame=127781 fps=2465 q=-1.0 size=N/A time=01:10:59.36 bitrate=N/A speed=82.2x elapsed=0:00:51.83
2026-04-05 17:06:02,233 - INFO - frame=127826 fps=2442 q=-1.0 size=N/A time=01:11:00.86 bitrate=N/A speed=81.4x elapsed=0:00:52.35
2026-04-05 17:06:02,892 - INFO - frame=130113 fps=2462 q=-1.0 size=N/A time=01:12:17.20 bitrate=N/A speed=82.1x elapsed=0:00:52.85
2026-04-05 17:06:03,276 - INFO - frame=130113 fps=2437 q=-1.0 size=N/A time=01:12:17.20 bitrate=N/A speed=81.2x elapsed=0:00:53.38
2026-04-05 17:06:03,792 - INFO - frame=131689 fps=2443 q=-1.0 size=N/A time=01:13:09.63 bitrate=N/A speed=81.4x elapsed=0:00:53.89
2026-04-05 17:06:04,305 - INFO - frame=132575 fps=2436 q=-1.0 size=N/A time=01:13:39.20 bitrate=N/A speed=81.2x elapsed=0:00:54.41
2026-04-05 17:06:04,820 - INFO - frame=132989 fps=2421 q=-1.0 size=N/A time=01:13:53.06 bitrate=N/A speed=80.7x elapsed=0:00:54.93
2026-04-05 17:06:05,337 - INFO - frame=133027 fps=2399 q=-1.0 size=N/A time=01:13:54.23 bitrate=N/A speed=  80x elapsed=0:00:55.44
2026-04-05 17:06:05,851 - INFO - frame=133065 fps=2378 q=-1.0 size=N/A time=01:13:55.63 bitrate=N/A speed=79.3x elapsed=0:00:55.96
2026-04-05 17:06:06,365 - INFO - frame=133113 fps=2357 q=-1.0 size=N/A time=01:13:57.10 bitrate=N/A speed=78.6x elapsed=0:00:56.47
2026-04-05 17:06:06,880 - INFO - frame=133168 fps=2337 q=-1.0 size=N/A time=01:13:59.00 bitrate=N/A speed=77.9x elapsed=0:00:56.98
2026-04-05 17:06:07,019 - INFO - frame=133463 fps=2321 q=-1.0 size=N/A time=01:14:08.80 bitrate=N/A speed=77.4x elapsed=0:00:57.50
2026-04-05 17:06:07,019 - INFO - [segment @ 000002c5f6677cc0] Opening 'D:\03_SANDBOX\Testing_Software\SegmentadorVideo_PY\260405_part016.mp4' for writing
2026-04-05 17:06:07,488 - INFO - frame=142703 fps=2460 q=-1.0 size=N/A time=01:19:16.80 bitrate=N/A speed=  82x elapsed=0:00:58.02
2026-04-05 17:06:07,488 - INFO - [segment @ 000002c5f6677cc0] Opening 'D:\03_SANDBOX\Testing_Software\SegmentadorVideo_PY\260405_part017.mp4' for writing
2026-04-05 17:06:07,983 - INFO - frame=152201 fps=2600 q=-1.0 size=N/A time=01:24:33.23 bitrate=N/A speed=86.7x elapsed=0:00:58.53
2026-04-05 17:06:07,984 - INFO - [segment @ 000002c5f6677cc0] Opening 'D:\03_SANDBOX\Testing_Software\SegmentadorVideo_PY\260405_part018.mp4' for writing
2026-04-05 17:06:08,948 - INFO - frame=158464 fps=2683 q=-1.0 size=N/A time=01:28:02.06 bitrate=N/A speed=89.4x elapsed=0:00:59.05
2026-04-05 17:06:09,451 - INFO - frame=160251 fps=2690 q=-1.0 size=N/A time=01:29:01.70 bitrate=N/A speed=89.7x elapsed=0:00:59.57
2026-04-05 17:06:09,972 - INFO - frame=160287 fps=2668 q=-1.0 size=N/A time=01:29:02.90 bitrate=N/A speed=88.9x elapsed=0:01:00.07
2026-04-05 17:06:15,805 - INFO - frame=160305 fps=2645 q=-1.0 size=N/A time=01:29:03.56 bitrate=N/A speed=88.2x elapsed=0:01:00.59
2026-04-05 17:06:15,805 - INFO - frame=160305 fps=2623 q=-1.0 size=N/A time=01:29:03.56 bitrate=N/A speed=87.4x elapsed=0:01:01.11
2026-04-05 17:06:15,888 - INFO - frame=160314 fps=2601 q=-1.0 size=N/A time=01:29:03.96 bitrate=N/A speed=86.7x elapsed=0:01:01.63
2026-04-05 17:06:15,889 - INFO - frame=160314 fps=2580 q=-1.0 size=N/A time=01:29:03.96 bitrate=N/A speed=  86x elapsed=0:01:02.14
2026-04-05 17:06:15,889 - INFO - frame=160314 fps=2558 q=-1.0 size=N/A time=01:29:03.96 bitrate=N/A speed=85.3x elapsed=0:01:02.66
2026-04-05 17:06:15,890 - INFO - frame=160314 fps=2538 q=-1.0 size=N/A time=01:29:03.96 bitrate=N/A speed=84.6x elapsed=0:01:03.17
2026-04-05 17:06:15,890 - INFO - frame=160314 fps=2517 q=-1.0 size=N/A time=01:29:03.96 bitrate=N/A speed=83.9x elapsed=0:01:03.68
2026-04-05 17:06:15,891 - INFO - frame=160314 fps=2497 q=-1.0 size=N/A time=01:29:03.96 bitrate=N/A speed=83.2x elapsed=0:01:04.20
2026-04-05 17:06:15,891 - INFO - frame=160314 fps=2477 q=-1.0 size=N/A time=01:29:03.96 bitrate=N/A speed=82.6x elapsed=0:01:04.72
2026-04-05 17:06:15,892 - INFO - frame=160314 fps=2457 q=-1.0 size=N/A time=01:29:03.96 bitrate=N/A speed=81.9x elapsed=0:01:05.24
2026-04-05 17:06:15,892 - INFO - frame=160314 fps=2438 q=-1.0 size=N/A time=01:29:03.96 bitrate=N/A speed=81.3x elapsed=0:01:05.75
2026-04-05 17:06:16,195 - INFO - frame=160314 fps=2418 q=-1.0 size=N/A time=01:29:03.96 bitrate=N/A speed=80.6x elapsed=0:01:06.30
2026-04-05 17:06:16,708 - INFO - frame=160341 fps=2400 q=-1.0 size=N/A time=01:29:04.70 bitrate=N/A speed=  80x elapsed=0:01:06.81
2026-04-05 17:06:17,226 - INFO - frame=160386 fps=2382 q=-1.0 size=N/A time=01:29:06.20 bitrate=N/A speed=79.4x elapsed=0:01:07.33
2026-04-05 17:06:17,745 - INFO - frame=160422 fps=2364 q=-1.0 size=N/A time=01:29:07.40 bitrate=N/A speed=78.8x elapsed=0:01:07.85
2026-04-05 17:06:18,259 - INFO - frame=160449 fps=2347 q=-1.0 size=N/A time=01:29:08.40 bitrate=N/A speed=78.2x elapsed=0:01:08.36
2026-04-05 17:06:18,774 - INFO - frame=160494 fps=2330 q=-1.0 size=N/A time=01:29:09.93 bitrate=N/A speed=77.7x elapsed=0:01:08.88
2026-04-05 17:06:19,290 - INFO - frame=160521 fps=2313 q=-1.0 size=N/A time=01:29:10.70 bitrate=N/A speed=77.1x elapsed=0:01:09.39
2026-04-05 17:06:19,806 - INFO - frame=160566 fps=2297 q=-1.0 size=N/A time=01:29:12.20 bitrate=N/A speed=76.6x elapsed=0:01:09.91
2026-04-05 17:06:20,111 - INFO - frame=160593 fps=2280 q=-1.0 size=N/A time=01:29:13.30 bitrate=N/A speed=  76x elapsed=0:01:10.42
2026-04-05 17:06:20,111 - INFO - [segment @ 000002c5f6677cc0] Opening 'D:\03_SANDBOX\Testing_Software\SegmentadorVideo_PY\260405_part019.mp4' for writing
2026-04-05 17:06:20,578 - INFO - frame=165272 fps=2329 q=-1.0 size=N/A time=01:31:48.80 bitrate=N/A speed=77.6x elapsed=0:01:10.94
2026-04-05 17:06:20,578 - INFO - [segment @ 000002c5f6677cc0] Opening 'D:\03_SANDBOX\Testing_Software\SegmentadorVideo_PY\260405_part020.mp4' for writing
2026-04-05 17:06:21,362 - INFO - frame=175000 fps=2449 q=-1.0 size=N/A time=01:37:13.46 bitrate=N/A speed=81.6x elapsed=0:01:11.46
2026-04-05 17:06:21,877 - INFO - frame=177813 fps=2470 q=-1.0 size=N/A time=01:38:47.10 bitrate=N/A speed=82.3x elapsed=0:01:11.98
2026-04-05 17:06:22,393 - INFO - frame=177849 fps=2453 q=-1.0 size=N/A time=01:38:48.30 bitrate=N/A speed=81.8x elapsed=0:01:12.50
2026-04-05 17:06:22,908 - INFO - frame=177885 fps=2436 q=-1.0 size=N/A time=01:38:49.73 bitrate=N/A speed=81.2x elapsed=0:01:13.01
2026-04-05 17:06:23,426 - INFO - frame=177930 fps=2420 q=-1.0 size=N/A time=01:38:51.23 bitrate=N/A speed=80.7x elapsed=0:01:13.53
2026-04-05 17:06:23,939 - INFO - frame=177975 fps=2403 q=-1.0 size=N/A time=01:38:52.73 bitrate=N/A speed=80.1x elapsed=0:01:14.04
2026-04-05 17:06:24,803 - INFO - frame=178020 fps=2387 q=-1.0 size=N/A time=01:38:54.23 bitrate=N/A speed=79.6x elapsed=0:01:14.56
2026-04-05 17:06:24,804 - INFO - [out#0/segment @ 000002c5f66d6600] video:3936706KiB audio:139110KiB subtitle:0KiB other streams:0KiB global headers:0KiB muxing overhead: unknown
2026-04-05 17:06:24,805 - INFO - frame=178065 fps=2361 q=-1.0 Lsize=N/A time=01:38:55.50 bitrate=N/A speed=78.7x elapsed=0:01:15.42
2026-04-05 17:06:24,823 - INFO - Archivos generados: 21
2026-04-05 17:06:24,824 - INFO - Proceso finalizado
2026-04-05 17:27:02,766 - INFO - Inicio del proceso
2026-04-05 17:27:09,718 - INFO - Tamańo objetivo de segmento: 190.0 MB
2026-04-05 17:27:10,186 - INFO - FFmpeg y ffprobe encontrados
2026-04-05 17:27:15,658 - INFO - Archivo seleccionado: D:/03_SANDBOX/Testing_Software/SegmentadorVideo_PY/260405.mp4
2026-04-05 17:27:15,985 - INFO - Duración video: 5935.5
2026-04-05 17:27:15,985 - INFO - Tamańo video: 3982.312867164612
2026-04-05 17:27:15,985 - INFO - Segment time: 283
2026-04-05 17:27:15,988 - INFO - Ejecutando FFmpeg
2026-04-05 17:27:16,149 - INFO - ffmpeg version N-123829-g69fc910777-20260404 Copyright (c) 2000-2026 the FFmpeg developers
2026-04-05 17:27:16,149 - INFO - built with gcc 15.2.0 (crosstool-NG 1.28.0.23_185f348)
2026-04-05 17:27:16,150 - INFO - configuration: --prefix=/ffbuild/prefix --pkg-config-flags=--static --pkg-config=pkg-config --cross-prefix=x86_64-w64-mingw32- --arch=x86_64 --target-os=mingw32 --enable-gpl --enable-version3 --disable-debug --enable-shared --disable-static --disable-w32threads --enable-pthreads --enable-iconv --enable-zlib --enable-libxml2 --enable-libvmaf --enable-fontconfig --enable-libharfbuzz --enable-libfreetype --enable-libfribidi --enable-vulkan --enable-libshaderc --enable-libvorbis --disable-libxcb --disable-xlib --disable-libpulse --enable-opencl --enable-gmp --enable-lzma --enable-liblcevc-dec --enable-amf --enable-libaom --enable-libaribb24 --enable-avisynth --enable-chromaprint --enable-libdav1d --enable-libdavs2 --enable-libdvdread --enable-libdvdnav --disable-libfdk-aac --enable-ffnvcodec --enable-cuda-llvm --enable-frei0r --enable-libgme --enable-libkvazaar --enable-libaribcaption --enable-libass --enable-libbluray --enable-libjxl --enable-libmp3lame --enable-libopus --enable-libplacebo --enable-librist --enable-libssh --enable-libtheora --enable-libvpx --enable-libwebp --enable-libzmq --enable-lv2 --enable-libvpl --enable-openal --enable-liboapv --enable-libopencore-amrnb --enable-libopencore-amrwb --enable-libopenh264 --enable-libopenjpeg --enable-libopenmpt --enable-librav1e --enable-librubberband --enable-schannel --enable-sdl2 --enable-libsnappy --enable-libsoxr --enable-libsrt --enable-libsvtav1 --enable-libtwolame --enable-libuavs3d --disable-libdrm --enable-vaapi --enable-libvidstab --enable-libvvenc --enable-whisper --enable-libx264 --enable-libx265 --enable-libxavs2 --enable-libxvid --enable-libzimg --enable-libzvbi --extra-cflags=-DLIBTWOLAME_STATIC --extra-cxxflags= --extra-libs=-lgomp --extra-ldflags=-pthread --extra-ldexeflags= --cc=x86_64-w64-mingw32-gcc --cxx=x86_64-w64-mingw32-g++ --ar=x86_64-w64-mingw32-gcc-ar --ranlib=x86_64-w64-mingw32-gcc-ranlib --nm=x86_64-w64-mingw32-gcc-nm --extra-version=20260404
2026-04-05 17:27:16,150 - INFO - libavutil      60. 29.100 / 60. 29.100
2026-04-05 17:27:16,150 - INFO - libavcodec     62. 29.101 / 62. 29.101
2026-04-05 17:27:16,150 - INFO - libavformat    62. 13.101 / 62. 13.101
2026-04-05 17:27:16,150 - INFO - libavdevice    62.  4.100 / 62.  4.100
2026-04-05 17:27:16,150 - INFO - libavfilter    11. 15.101 / 11. 15.101
2026-04-05 17:27:16,150 - INFO - libswscale      9.  7.100 /  9.  7.100
2026-04-05 17:27:16,150 - INFO - libswresample   6.  4.100 /  6.  4.100
2026-04-05 17:27:16,279 - INFO - Input #0, mov,mp4,m4a,3gp,3g2,mj2, from 'D:/03_SANDBOX/Testing_Software/SegmentadorVideo_PY/260405.mp4':
2026-04-05 17:27:16,279 - INFO - Metadata:
2026-04-05 17:27:16,280 - INFO - major_brand     : mp42
2026-04-05 17:27:16,280 - INFO - minor_version   : 0
2026-04-05 17:27:16,280 - INFO - compatible_brands: mp41isom
2026-04-05 17:27:16,280 - INFO - creation_time   : 2026-04-04T14:12:56.000000Z
2026-04-05 17:27:16,280 - INFO - Duration: 01:38:55.50, start: 0.000000, bitrate: 5628 kb/s
2026-04-05 17:27:16,281 - INFO - Stream #0:0[0x1](und): Video: h264 (Main) (avc1 / 0x31637661), yuv420p(progressive), 1438x900 [SAR 1:1 DAR 719:450], 5433 kb/s, 30 fps, 30 tbr, 30k tbn (default)
2026-04-05 17:27:16,281 - INFO - Metadata:
2026-04-05 17:27:16,281 - INFO - creation_time   : 2026-04-04T14:12:56.000000Z
2026-04-05 17:27:16,281 - INFO - handler_name    : VideoHandler
2026-04-05 17:27:16,282 - INFO - encoder         : AVC Coding
2026-04-05 17:27:16,282 - INFO - Stream #0:1[0x2](und): Audio: aac (LC) (mp4a / 0x6134706D), 48000 Hz, stereo, fltp, 192 kb/s (default)
2026-04-05 17:27:16,282 - INFO - Metadata:
2026-04-05 17:27:16,282 - INFO - creation_time   : 2026-04-04T14:12:56.000000Z
2026-04-05 17:27:16,283 - INFO - handler_name    : SoundHandler
2026-04-05 17:27:16,283 - INFO - Stream mapping:
2026-04-05 17:27:16,283 - INFO - Stream #0:0 -> #0:0 (copy)
2026-04-05 17:27:16,283 - INFO - Stream #0:1 -> #0:1 (copy)
2026-04-05 17:27:16,284 - INFO - [segment @ 000001c902ac2800] Opening 'D:/03_SANDBOX/Testing_Software/SegmentadorVideo_PY\260405_part000.mp4' for writing
2026-04-05 17:27:16,284 - INFO - Output #0, segment, to 'D:/03_SANDBOX/Testing_Software/SegmentadorVideo_PY\260405_part%03d.mp4':
2026-04-05 17:27:16,284 - INFO - Metadata:
2026-04-05 17:27:16,284 - INFO - major_brand     : mp42
2026-04-05 17:27:16,284 - INFO - minor_version   : 0
2026-04-05 17:27:16,284 - INFO - compatible_brands: mp41isom
2026-04-05 17:27:16,285 - INFO - encoder         : Lavf62.13.101
2026-04-05 17:27:16,285 - INFO - Stream #0:0(und): Video: h264 (Main) (avc1 / 0x31637661), yuv420p(progressive), 1438x900 [SAR 1:1 DAR 719:450], q=2-31, 5433 kb/s, 30 fps, 30 tbr, 30k tbn (default)
2026-04-05 17:27:16,285 - INFO - Metadata:
2026-04-05 17:27:16,285 - INFO - creation_time   : 2026-04-04T14:12:56.000000Z
2026-04-05 17:27:16,285 - INFO - handler_name    : VideoHandler
2026-04-05 17:27:16,286 - INFO - encoder         : AVC Coding
2026-04-05 17:27:16,286 - INFO - Stream #0:1(und): Audio: aac (LC) (mp4a / 0x6134706D), 48000 Hz, stereo, fltp, 192 kb/s (default)
2026-04-05 17:27:16,286 - INFO - Metadata:
2026-04-05 17:27:16,286 - INFO - creation_time   : 2026-04-04T14:12:56.000000Z
2026-04-05 17:27:16,287 - INFO - handler_name    : SoundHandler
2026-04-05 17:27:16,287 - INFO - Press [q] to stop, [?] for help
2026-04-05 17:27:17,204 - INFO - frame= 5031 fps=0.0 q=-1.0 size=N/A time=00:02:47.70 bitrate=N/A speed= 326x elapsed=0:00:00.51
2026-04-05 17:27:17,204 - INFO - [segment @ 000001c902ac2800] Opening 'D:/03_SANDBOX/Testing_Software/SegmentadorVideo_PY\260405_part001.mp4' for writing
2026-04-05 17:27:17,835 - INFO - frame= 9729 fps=9369 q=-1.0 size=N/A time=00:05:24.26 bitrate=N/A speed= 312x elapsed=0:00:01.03
2026-04-05 17:27:17,948 - INFO - frame=15849 fps=10219 q=-1.0 size=N/A time=00:08:48.33 bitrate=N/A speed= 341x elapsed=0:00:01.55
2026-04-05 17:27:17,948 - INFO - [segment @ 000001c902ac2800] Opening 'D:/03_SANDBOX/Testing_Software/SegmentadorVideo_PY\260405_part002.mp4' for writing
2026-04-05 17:27:18,711 - INFO - frame=21177 fps=10273 q=-1.0 size=N/A time=00:11:45.73 bitrate=N/A speed= 342x elapsed=0:00:02.06
2026-04-05 17:27:18,711 - INFO - [segment @ 000001c902ac2800] Opening 'D:/03_SANDBOX/Testing_Software/SegmentadorVideo_PY\260405_part003.mp4' for writing
2026-04-05 17:27:19,374 - INFO - frame=27023 fps=10493 q=-1.0 size=N/A time=00:15:00.70 bitrate=N/A speed= 350x elapsed=0:00:02.57
2026-04-05 17:27:19,486 - INFO - frame=32707 fps=10585 q=-1.0 size=N/A time=00:18:10.06 bitrate=N/A speed= 353x elapsed=0:00:03.08
2026-04-05 17:27:19,486 - INFO - [segment @ 000001c902ac2800] Opening 'D:/03_SANDBOX/Testing_Software/SegmentadorVideo_PY\260405_part004.mp4' for writing
2026-04-05 17:27:20,329 - INFO - frame=37651 fps=10438 q=-1.0 size=N/A time=00:20:55.20 bitrate=N/A speed= 348x elapsed=0:00:03.60
2026-04-05 17:27:20,329 - INFO - [segment @ 000001c902ac2800] Opening 'D:/03_SANDBOX/Testing_Software/SegmentadorVideo_PY\260405_part005.mp4' for writing
2026-04-05 17:27:20,870 - INFO - frame=43200 fps=10482 q=-1.0 size=N/A time=00:24:00.00 bitrate=N/A speed= 349x elapsed=0:00:04.12
2026-04-05 17:27:20,870 - INFO - [segment @ 000001c902ac2800] Opening 'D:/03_SANDBOX/Testing_Software/SegmentadorVideo_PY\260405_part006.mp4' for writing
2026-04-05 17:27:21,436 - INFO - frame=50956 fps=10991 q=-1.0 size=N/A time=00:28:18.60 bitrate=N/A speed= 366x elapsed=0:00:04.63
2026-04-05 17:27:21,452 - INFO - frame=59378 fps=11524 q=-1.0 size=N/A time=00:32:59.43 bitrate=N/A speed= 384x elapsed=0:00:05.15
2026-04-05 17:27:21,453 - INFO - [segment @ 000001c902ac2800] Opening 'D:/03_SANDBOX/Testing_Software/SegmentadorVideo_PY\260405_part007.mp4' for writing
2026-04-05 17:27:22,472 - INFO - frame=59872 fps=10557 q=-1.0 size=N/A time=00:33:15.73 bitrate=N/A speed= 352x elapsed=0:00:05.67
2026-04-05 17:27:35,752 - INFO - frame=59872 fps=9676 q=-1.0 size=N/A time=00:33:15.73 bitrate=N/A speed= 323x elapsed=0:00:06.18
2026-04-05 17:27:35,753 - INFO - frame=59872 fps=8932 q=-1.0 size=N/A time=00:33:15.73 bitrate=N/A speed= 298x elapsed=0:00:06.70
2026-04-05 17:27:35,753 - INFO - frame=59872 fps=8292 q=-1.0 size=N/A time=00:33:15.73 bitrate=N/A speed= 276x elapsed=0:00:07.22
2026-04-05 17:27:35,753 - INFO - frame=59872 fps=7744 q=-1.0 size=N/A time=00:33:15.73 bitrate=N/A speed= 258x elapsed=0:00:07.73
2026-04-05 17:27:35,754 - INFO - frame=59872 fps=7257 q=-1.0 size=N/A time=00:33:15.73 bitrate=N/A speed= 242x elapsed=0:00:08.25
2026-04-05 17:27:35,754 - INFO - frame=59872 fps=6826 q=-1.0 size=N/A time=00:33:15.73 bitrate=N/A speed= 228x elapsed=0:00:08.77
2026-04-05 17:27:35,754 - INFO - frame=59872 fps=6455 q=-1.0 size=N/A time=00:33:15.73 bitrate=N/A speed= 215x elapsed=0:00:09.27
2026-04-05 17:27:35,754 - INFO - frame=59872 fps=6113 q=-1.0 size=N/A time=00:33:15.73 bitrate=N/A speed= 204x elapsed=0:00:09.79
2026-04-05 17:27:35,754 - INFO - frame=59872 fps=5807 q=-1.0 size=N/A time=00:33:15.73 bitrate=N/A speed= 194x elapsed=0:00:10.31
2026-04-05 17:27:35,755 - INFO - frame=59872 fps=5531 q=-1.0 size=N/A time=00:33:15.73 bitrate=N/A speed= 184x elapsed=0:00:10.82
2026-04-05 17:27:35,755 - INFO - frame=59872 fps=5278 q=-1.0 size=N/A time=00:33:15.73 bitrate=N/A speed= 176x elapsed=0:00:11.34
2026-04-05 17:27:35,755 - INFO - frame=59872 fps=5049 q=-1.0 size=N/A time=00:33:15.73 bitrate=N/A speed= 168x elapsed=0:00:11.85
2026-04-05 17:27:35,755 - INFO - frame=59872 fps=4839 q=-1.0 size=N/A time=00:33:15.73 bitrate=N/A speed= 161x elapsed=0:00:12.37
2026-04-05 17:27:35,755 - INFO - frame=59872 fps=4644 q=-1.0 size=N/A time=00:33:15.73 bitrate=N/A speed= 155x elapsed=0:00:12.89
2026-04-05 17:27:35,755 - INFO - frame=59872 fps=4465 q=-1.0 size=N/A time=00:33:15.73 bitrate=N/A speed= 149x elapsed=0:00:13.41
2026-04-05 17:27:35,756 - INFO - frame=59872 fps=4298 q=-1.0 size=N/A time=00:33:15.73 bitrate=N/A speed= 143x elapsed=0:00:13.92
2026-04-05 17:27:35,756 - INFO - frame=59872 fps=4148 q=-1.0 size=N/A time=00:33:15.73 bitrate=N/A speed= 138x elapsed=0:00:14.43
2026-04-05 17:27:35,756 - INFO - frame=59872 fps=4005 q=-1.0 size=N/A time=00:33:15.73 bitrate=N/A speed= 133x elapsed=0:00:14.95
2026-04-05 17:27:35,756 - INFO - frame=59872 fps=3872 q=-1.0 size=N/A time=00:33:15.73 bitrate=N/A speed= 129x elapsed=0:00:15.46
2026-04-05 17:27:35,756 - INFO - frame=59872 fps=3747 q=-1.0 size=N/A time=00:33:15.73 bitrate=N/A speed= 125x elapsed=0:00:15.97
2026-04-05 17:27:35,756 - INFO - frame=59872 fps=3630 q=-1.0 size=N/A time=00:33:15.73 bitrate=N/A speed= 121x elapsed=0:00:16.49
2026-04-05 17:27:35,757 - INFO - frame=59872 fps=3519 q=-1.0 size=N/A time=00:33:15.73 bitrate=N/A speed= 117x elapsed=0:00:17.01
2026-04-05 17:27:35,757 - INFO - frame=59872 fps=3416 q=-1.0 size=N/A time=00:33:15.73 bitrate=N/A speed= 114x elapsed=0:00:17.52
2026-04-05 17:27:35,757 - INFO - frame=59872 fps=3318 q=-1.0 size=N/A time=00:33:15.73 bitrate=N/A speed= 111x elapsed=0:00:18.04
2026-04-05 17:27:35,757 - INFO - frame=59872 fps=3226 q=-1.0 size=N/A time=00:33:15.73 bitrate=N/A speed= 108x elapsed=0:00:18.55
2026-04-05 17:27:35,877 - INFO - frame=59872 fps=3139 q=-1.0 size=N/A time=00:33:15.73 bitrate=N/A speed= 105x elapsed=0:00:19.07
2026-04-05 17:27:36,392 - INFO - frame=60423 fps=3084 q=-1.0 size=N/A time=00:33:34.10 bitrate=N/A speed= 103x elapsed=0:00:19.59
2026-04-05 17:27:36,911 - INFO - frame=61363 fps=3052 q=-1.0 size=N/A time=00:34:05.43 bitrate=N/A speed= 102x elapsed=0:00:20.10
2026-04-05 17:27:37,426 - INFO - frame=62550 fps=3032 q=-1.0 size=N/A time=00:34:45.00 bitrate=N/A speed= 101x elapsed=0:00:20.62
2026-04-05 17:27:37,939 - INFO - frame=63392 fps=2998 q=-1.0 size=N/A time=00:35:13.06 bitrate=N/A speed=99.9x elapsed=0:00:21.14
2026-04-05 17:27:38,453 - INFO - frame=64493 fps=2978 q=-1.0 size=N/A time=00:35:49.76 bitrate=N/A speed=99.3x elapsed=0:00:21.65
2026-04-05 17:27:38,970 - INFO - frame=64930 fps=2929 q=-1.0 size=N/A time=00:36:04.33 bitrate=N/A speed=97.6x elapsed=0:00:22.16
2026-04-05 17:27:39,484 - INFO - frame=66065 fps=2912 q=-1.0 size=N/A time=00:36:42.30 bitrate=N/A speed=97.1x elapsed=0:00:22.68
2026-04-05 17:27:39,670 - INFO - frame=67892 fps=2926 q=-1.0 size=N/A time=00:37:43.06 bitrate=N/A speed=97.5x elapsed=0:00:23.19
2026-04-05 17:27:39,687 - INFO - [segment @ 000001c902ac2800] Opening 'D:/03_SANDBOX/Testing_Software/SegmentadorVideo_PY\260405_part008.mp4' for writing
2026-04-05 17:27:40,515 - INFO - frame=69131 fps=2915 q=-1.0 size=N/A time=00:38:24.60 bitrate=N/A speed=97.2x elapsed=0:00:23.71
2026-04-05 17:27:41,032 - INFO - frame=69208 fps=2856 q=-1.0 size=N/A time=00:38:26.93 bitrate=N/A speed=95.2x elapsed=0:00:24.23
2026-04-05 17:27:41,546 - INFO - frame=69237 fps=2798 q=-1.0 size=N/A time=00:38:27.93 bitrate=N/A speed=93.3x elapsed=0:00:24.74
2026-04-05 17:27:42,075 - INFO - frame=69275 fps=2742 q=-1.0 size=N/A time=00:38:29.16 bitrate=N/A speed=91.4x elapsed=0:00:25.26
2026-04-05 17:27:42,580 - INFO - frame=69275 fps=2688 q=-1.0 size=N/A time=00:38:29.16 bitrate=N/A speed=89.6x elapsed=0:00:25.77
2026-04-05 17:27:43,093 - INFO - frame=73357 fps=2790 q=-1.0 size=N/A time=00:40:45.16 bitrate=N/A speed=  93x elapsed=0:00:26.29
2026-04-05 17:27:43,606 - INFO - frame=73631 fps=2746 q=-1.0 size=N/A time=00:40:54.43 bitrate=N/A speed=91.6x elapsed=0:00:26.80
2026-04-05 17:27:44,123 - INFO - frame=73679 fps=2697 q=-1.0 size=N/A time=00:40:55.96 bitrate=N/A speed=89.9x elapsed=0:00:27.32
2026-04-05 17:27:44,641 - INFO - frame=73718 fps=2648 q=-1.0 size=N/A time=00:40:57.46 bitrate=N/A speed=88.3x elapsed=0:00:27.83
2026-04-05 17:27:45,157 - INFO - frame=73764 fps=2601 q=-1.0 size=N/A time=00:40:58.86 bitrate=N/A speed=86.7x elapsed=0:00:28.35
2026-04-05 17:27:45,673 - INFO - frame=73821 fps=2557 q=-1.0 size=N/A time=00:41:00.76 bitrate=N/A speed=85.2x elapsed=0:00:28.87
2026-04-05 17:27:45,828 - INFO - frame=73858 fps=2513 q=-1.0 size=N/A time=00:41:02.10 bitrate=N/A speed=83.8x elapsed=0:00:29.38
2026-04-05 17:27:45,828 - INFO - [segment @ 000001c902ac2800] Opening 'D:/03_SANDBOX/Testing_Software/SegmentadorVideo_PY\260405_part009.mp4' for writing
2026-04-05 17:27:46,275 - INFO - frame=83373 fps=2788 q=-1.0 size=N/A time=00:46:19.30 bitrate=N/A speed=92.9x elapsed=0:00:29.90
2026-04-05 17:27:46,276 - INFO - [segment @ 000001c902ac2800] Opening 'D:/03_SANDBOX/Testing_Software/SegmentadorVideo_PY\260405_part010.mp4' for writing
2026-04-05 17:27:46,979 - INFO - frame=90370 fps=2971 q=-1.0 size=N/A time=00:50:12.30 bitrate=N/A speed=  99x elapsed=0:00:30.41
2026-04-05 17:27:46,979 - INFO - [segment @ 000001c902ac2800] Opening 'D:/03_SANDBOX/Testing_Software/SegmentadorVideo_PY\260405_part011.mp4' for writing
2026-04-05 17:27:47,743 - INFO - frame=96009 fps=3103 q=-1.0 size=N/A time=00:53:20.30 bitrate=N/A speed= 103x elapsed=0:00:30.93
2026-04-05 17:27:47,748 - INFO - frame=101861 fps=3238 q=-1.0 size=N/A time=00:56:35.26 bitrate=N/A speed= 108x elapsed=0:00:31.45
2026-04-05 17:27:47,749 - INFO - [segment @ 000001c902ac2800] Opening 'D:/03_SANDBOX/Testing_Software/SegmentadorVideo_PY\260405_part012.mp4' for writing
2026-04-05 17:27:48,544 - INFO - frame=106839 fps=3343 q=-1.0 size=N/A time=00:59:21.30 bitrate=N/A speed= 111x elapsed=0:00:31.96
2026-04-05 17:27:48,545 - INFO - [segment @ 000001c902ac2800] Opening 'D:/03_SANDBOX/Testing_Software/SegmentadorVideo_PY\260405_part013.mp4' for writing
2026-04-05 17:27:49,282 - INFO - frame=112531 fps=3464 q=-1.0 size=N/A time=01:02:31.00 bitrate=N/A speed= 115x elapsed=0:00:32.48
2026-04-05 17:27:50,164 - INFO - frame=113922 fps=3452 q=-1.0 size=N/A time=01:03:17.53 bitrate=N/A speed= 115x elapsed=0:00:32.99
2026-04-05 17:27:50,315 - INFO - frame=113922 fps=3399 q=-1.0 size=N/A time=01:03:17.53 bitrate=N/A speed= 113x elapsed=0:00:33.51
2026-04-05 17:27:58,729 - INFO - frame=114025 fps=3351 q=-1.0 size=N/A time=01:03:20.86 bitrate=N/A speed= 112x elapsed=0:00:34.03
2026-04-05 17:27:58,730 - INFO - frame=114025 fps=3301 q=-1.0 size=N/A time=01:03:20.86 bitrate=N/A speed= 110x elapsed=0:00:34.54
2026-04-05 17:27:58,730 - INFO - frame=114025 fps=3253 q=-1.0 size=N/A time=01:03:20.86 bitrate=N/A speed= 108x elapsed=0:00:35.05
2026-04-05 17:27:58,730 - INFO - frame=114025 fps=3205 q=-1.0 size=N/A time=01:03:20.86 bitrate=N/A speed= 107x elapsed=0:00:35.57
2026-04-05 17:27:58,731 - INFO - frame=114025 fps=3160 q=-1.0 size=N/A time=01:03:20.86 bitrate=N/A speed= 105x elapsed=0:00:36.08
2026-04-05 17:27:58,731 - INFO - frame=114025 fps=3115 q=-1.0 size=N/A time=01:03:20.86 bitrate=N/A speed= 104x elapsed=0:00:36.60
2026-04-05 17:27:58,732 - INFO - frame=114025 fps=3072 q=-1.0 size=N/A time=01:03:20.86 bitrate=N/A speed= 102x elapsed=0:00:37.11
2026-04-05 17:27:58,732 - INFO - frame=114025 fps=3030 q=-1.0 size=N/A time=01:03:20.86 bitrate=N/A speed= 101x elapsed=0:00:37.63
2026-04-05 17:27:58,732 - INFO - frame=114025 fps=2989 q=-1.0 size=N/A time=01:03:20.86 bitrate=N/A speed=99.6x elapsed=0:00:38.15
2026-04-05 17:27:58,732 - INFO - frame=114025 fps=2949 q=-1.0 size=N/A time=01:03:20.86 bitrate=N/A speed=98.3x elapsed=0:00:38.66
2026-04-05 17:27:58,733 - INFO - frame=114025 fps=2910 q=-1.0 size=N/A time=01:03:20.86 bitrate=N/A speed=  97x elapsed=0:00:39.18
2026-04-05 17:27:58,733 - INFO - frame=114025 fps=2872 q=-1.0 size=N/A time=01:03:20.86 bitrate=N/A speed=95.7x elapsed=0:00:39.70
2026-04-05 17:27:58,734 - INFO - frame=114025 fps=2835 q=-1.0 size=N/A time=01:03:20.86 bitrate=N/A speed=94.5x elapsed=0:00:40.22
2026-04-05 17:27:58,734 - INFO - frame=114025 fps=2799 q=-1.0 size=N/A time=01:03:20.86 bitrate=N/A speed=93.3x elapsed=0:00:40.73
2026-04-05 17:27:58,734 - INFO - frame=114025 fps=2764 q=-1.0 size=N/A time=01:03:20.86 bitrate=N/A speed=92.1x elapsed=0:00:41.25
2026-04-05 17:27:58,735 - INFO - frame=114025 fps=2730 q=-1.0 size=N/A time=01:03:20.86 bitrate=N/A speed=  91x elapsed=0:00:41.75
2026-04-05 17:27:59,078 - INFO - frame=114025 fps=2697 q=-1.0 size=N/A time=01:03:20.86 bitrate=N/A speed=89.9x elapsed=0:00:42.27
2026-04-05 17:27:59,597 - INFO - frame=114728 fps=2681 q=-1.0 size=N/A time=01:03:44.33 bitrate=N/A speed=89.4x elapsed=0:00:42.79
2026-04-05 17:28:00,117 - INFO - frame=115592 fps=2669 q=-1.0 size=N/A time=01:04:13.06 bitrate=N/A speed=  89x elapsed=0:00:43.31
2026-04-05 17:28:00,634 - INFO - frame=117415 fps=2679 q=-1.0 size=N/A time=01:05:13.83 bitrate=N/A speed=89.3x elapsed=0:00:43.83
2026-04-05 17:28:01,045 - INFO - frame=118151 fps=2664 q=-1.0 size=N/A time=01:05:38.43 bitrate=N/A speed=88.8x elapsed=0:00:44.35
2026-04-05 17:28:01,045 - INFO - [segment @ 000001c902ac2800] Opening 'D:/03_SANDBOX/Testing_Software/SegmentadorVideo_PY\260405_part014.mp4' for writing
2026-04-05 17:28:01,655 - INFO - frame=120234 fps=2681 q=-1.0 size=N/A time=01:06:47.90 bitrate=N/A speed=89.4x elapsed=0:00:44.85
2026-04-05 17:28:02,174 - INFO - frame=120369 fps=2653 q=-1.0 size=N/A time=01:06:52.36 bitrate=N/A speed=88.4x elapsed=0:00:45.37
2026-04-05 17:28:02,689 - INFO - frame=120486 fps=2626 q=-1.0 size=N/A time=01:06:56.20 bitrate=N/A speed=87.5x elapsed=0:00:45.89
2026-04-05 17:28:03,202 - INFO - frame=120513 fps=2597 q=-1.0 size=N/A time=01:06:57.26 bitrate=N/A speed=86.6x elapsed=0:00:46.40
2026-04-05 17:28:03,716 - INFO - frame=120738 fps=2573 q=-1.0 size=N/A time=01:07:04.66 bitrate=N/A speed=85.8x elapsed=0:00:46.91
2026-04-05 17:28:04,235 - INFO - frame=123251 fps=2598 q=-1.0 size=N/A time=01:08:28.60 bitrate=N/A speed=86.6x elapsed=0:00:47.43
2026-04-05 17:28:04,748 - INFO - frame=124518 fps=2597 q=-1.0 size=N/A time=01:09:10.40 bitrate=N/A speed=86.6x elapsed=0:00:47.95
2026-04-05 17:28:05,261 - INFO - frame=125846 fps=2597 q=-1.0 size=N/A time=01:09:55.13 bitrate=N/A speed=86.6x elapsed=0:00:48.46
2026-04-05 17:28:05,790 - INFO - frame=125890 fps=2570 q=-1.0 size=N/A time=01:09:56.56 bitrate=N/A speed=85.7x elapsed=0:00:48.97
2026-04-05 17:28:06,293 - INFO - frame=125953 fps=2544 q=-1.0 size=N/A time=01:09:58.43 bitrate=N/A speed=84.8x elapsed=0:00:49.50
2026-04-05 17:28:06,811 - INFO - frame=125998 fps=2520 q=-1.0 size=N/A time=01:09:59.93 bitrate=N/A speed=  84x elapsed=0:00:50.00
2026-04-05 17:28:07,327 - INFO - frame=126052 fps=2495 q=-1.0 size=N/A time=01:10:01.73 bitrate=N/A speed=83.2x elapsed=0:00:50.52
2026-04-05 17:28:07,485 - INFO - frame=126097 fps=2470 q=-1.0 size=N/A time=01:10:03.24 bitrate=N/A speed=82.3x elapsed=0:00:51.04
2026-04-05 17:28:07,485 - INFO - [segment @ 000001c902ac2800] Opening 'D:/03_SANDBOX/Testing_Software/SegmentadorVideo_PY\260405_part015.mp4' for writing
2026-04-05 17:28:08,370 - INFO - frame=130855 fps=2538 q=-1.0 size=N/A time=01:12:41.76 bitrate=N/A speed=84.6x elapsed=0:00:51.55
2026-04-05 17:28:08,493 - INFO - frame=134905 fps=2590 q=-1.0 size=N/A time=01:14:56.73 bitrate=N/A speed=86.3x elapsed=0:00:52.08
2026-04-05 17:28:08,493 - INFO - [segment @ 000001c902ac2800] Opening 'D:/03_SANDBOX/Testing_Software/SegmentadorVideo_PY\260405_part016.mp4' for writing
2026-04-05 17:28:09,389 - INFO - frame=139135 fps=2646 q=-1.0 size=N/A time=01:17:17.66 bitrate=N/A speed=88.2x elapsed=0:00:52.58
2026-04-05 17:28:09,503 - INFO - frame=143381 fps=2700 q=-1.0 size=N/A time=01:19:39.33 bitrate=N/A speed=  90x elapsed=0:00:53.10
2026-04-05 17:28:09,503 - INFO - [segment @ 000001c902ac2800] Opening 'D:/03_SANDBOX/Testing_Software/SegmentadorVideo_PY\260405_part017.mp4' for writing
2026-04-05 17:28:10,418 - INFO - frame=147071 fps=2743 q=-1.0 size=N/A time=01:21:42.40 bitrate=N/A speed=91.4x elapsed=0:00:53.62
2026-04-05 17:28:10,736 - INFO - frame=151247 fps=2794 q=-1.0 size=N/A time=01:24:01.53 bitrate=N/A speed=93.1x elapsed=0:00:54.13
2026-04-05 17:28:10,736 - INFO - [segment @ 000001c902ac2800] Opening 'D:/03_SANDBOX/Testing_Software/SegmentadorVideo_PY\260405_part018.mp4' for writing
2026-04-05 17:28:11,449 - INFO - frame=154417 fps=2825 q=-1.0 size=N/A time=01:25:47.23 bitrate=N/A speed=94.2x elapsed=0:00:54.65
2026-04-05 17:28:13,898 - INFO - frame=156705 fps=2841 q=-1.0 size=N/A time=01:27:03.56 bitrate=N/A speed=94.7x elapsed=0:00:55.16
2026-04-05 17:28:13,898 - INFO - frame=156705 fps=2814 q=-1.0 size=N/A time=01:27:03.56 bitrate=N/A speed=93.8x elapsed=0:00:55.68
2026-04-05 17:28:13,899 - INFO - frame=156705 fps=2788 q=-1.0 size=N/A time=01:27:03.56 bitrate=N/A speed=92.9x elapsed=0:00:56.19
2026-04-05 17:28:13,899 - INFO - frame=156705 fps=2763 q=-1.0 size=N/A time=01:27:03.56 bitrate=N/A speed=92.1x elapsed=0:00:56.71
2026-04-05 17:28:14,027 - INFO - frame=156705 fps=2738 q=-1.0 size=N/A time=01:27:03.56 bitrate=N/A speed=91.3x elapsed=0:00:57.23
2026-04-05 17:28:14,547 - INFO - frame=156714 fps=2714 q=-1.0 size=N/A time=01:27:03.96 bitrate=N/A speed=90.5x elapsed=0:00:57.74
2026-04-05 17:28:16,435 - INFO - frame=156741 fps=2690 q=-1.0 size=N/A time=01:27:04.70 bitrate=N/A speed=89.7x elapsed=0:00:58.26
2026-04-05 17:28:16,435 - INFO - frame=156741 fps=2667 q=-1.0 size=N/A time=01:27:04.70 bitrate=N/A speed=88.9x elapsed=0:00:58.77
2026-04-05 17:28:16,436 - INFO - frame=156741 fps=2643 q=-1.0 size=N/A time=01:27:04.70 bitrate=N/A speed=88.1x elapsed=0:00:59.29
2026-04-05 17:28:16,609 - INFO - frame=156741 fps=2621 q=-1.0 size=N/A time=01:27:04.70 bitrate=N/A speed=87.4x elapsed=0:00:59.81
2026-04-05 17:28:17,125 - INFO - frame=156750 fps=2598 q=-1.0 size=N/A time=01:27:05.00 bitrate=N/A speed=86.6x elapsed=0:01:00.32
2026-04-05 17:28:17,641 - INFO - frame=156786 fps=2577 q=-1.0 size=N/A time=01:27:06.20 bitrate=N/A speed=85.9x elapsed=0:01:00.83
2026-04-05 17:28:18,156 - INFO - frame=156822 fps=2556 q=-1.0 size=N/A time=01:27:07.40 bitrate=N/A speed=85.2x elapsed=0:01:01.35
2026-04-05 17:28:18,667 - INFO - frame=156858 fps=2535 q=-1.0 size=N/A time=01:27:08.83 bitrate=N/A speed=84.5x elapsed=0:01:01.87
2026-04-05 17:28:19,188 - INFO - frame=156894 fps=2515 q=-1.0 size=N/A time=01:27:09.93 bitrate=N/A speed=83.8x elapsed=0:01:02.38
2026-04-05 17:28:19,704 - INFO - frame=156930 fps=2495 q=-1.0 size=N/A time=01:27:11.06 bitrate=N/A speed=83.2x elapsed=0:01:02.90
2026-04-05 17:28:20,220 - INFO - frame=157569 fps=2485 q=-1.0 size=N/A time=01:27:32.30 bitrate=N/A speed=82.8x elapsed=0:01:03.42
2026-04-05 17:28:20,230 - INFO - frame=161349 fps=2524 q=-1.0 size=N/A time=01:29:38.00 bitrate=N/A speed=84.1x elapsed=0:01:03.93
2026-04-05 17:28:20,231 - INFO - [segment @ 000001c902ac2800] Opening 'D:/03_SANDBOX/Testing_Software/SegmentadorVideo_PY\260405_part019.mp4' for writing
2026-04-05 17:28:21,251 - INFO - frame=166002 fps=2576 q=-1.0 size=N/A time=01:32:13.40 bitrate=N/A speed=85.9x elapsed=0:01:04.44
2026-04-05 17:28:21,328 - INFO - frame=169865 fps=2615 q=-1.0 size=N/A time=01:34:22.16 bitrate=N/A speed=87.2x elapsed=0:01:04.96
2026-04-05 17:28:21,328 - INFO - [segment @ 000001c902ac2800] Opening 'D:/03_SANDBOX/Testing_Software/SegmentadorVideo_PY\260405_part020.mp4' for writing
2026-04-05 17:28:22,283 - INFO - frame=170684 fps=2607 q=-1.0 size=N/A time=01:34:49.70 bitrate=N/A speed=86.9x elapsed=0:01:05.48
2026-04-05 17:28:22,795 - INFO - frame=170829 fps=2588 q=-1.0 size=N/A time=01:34:54.56 bitrate=N/A speed=86.3x elapsed=0:01:05.99
2026-04-05 17:28:23,436 - INFO - frame=170882 fps=2569 q=-1.0 size=N/A time=01:34:56.06 bitrate=N/A speed=85.6x elapsed=0:01:06.51
2026-04-05 17:28:23,827 - INFO - frame=170882 fps=2549 q=-1.0 size=N/A time=01:34:56.06 bitrate=N/A speed=  85x elapsed=0:01:07.03
2026-04-05 17:28:24,341 - INFO - frame=171413 fps=2538 q=-1.0 size=N/A time=01:35:13.90 bitrate=N/A speed=84.6x elapsed=0:01:07.54
2026-04-05 17:28:24,863 - INFO - frame=172304 fps=2532 q=-1.0 size=N/A time=01:35:43.46 bitrate=N/A speed=84.4x elapsed=0:01:08.05
2026-04-05 17:28:25,375 - INFO - frame=173825 fps=2535 q=-1.0 size=N/A time=01:36:34.03 bitrate=N/A speed=84.5x elapsed=0:01:08.57
2026-04-05 17:28:25,891 - INFO - frame=175271 fps=2537 q=-1.0 size=N/A time=01:37:22.50 bitrate=N/A speed=84.6x elapsed=0:01:09.09
2026-04-05 17:28:26,412 - INFO - frame=175307 fps=2519 q=-1.0 size=N/A time=01:37:23.56 bitrate=N/A speed=  84x elapsed=0:01:09.60
2026-04-05 17:28:26,922 - INFO - frame=175352 fps=2501 q=-1.0 size=N/A time=01:37:25.07 bitrate=N/A speed=83.4x elapsed=0:01:10.12
2026-04-05 17:28:27,434 - INFO - frame=175388 fps=2483 q=-1.0 size=N/A time=01:37:26.26 bitrate=N/A speed=82.8x elapsed=0:01:10.63
2026-04-05 17:28:27,950 - INFO - frame=175433 fps=2466 q=-1.0 size=N/A time=01:37:27.76 bitrate=N/A speed=82.2x elapsed=0:01:11.14
2026-04-05 17:28:28,468 - INFO - frame=175487 fps=2449 q=-1.0 size=N/A time=01:37:29.56 bitrate=N/A speed=81.6x elapsed=0:01:11.66
2026-04-05 17:28:28,616 - INFO - frame=176886 fps=2451 q=-1.0 size=N/A time=01:38:16.20 bitrate=N/A speed=81.7x elapsed=0:01:12.18
2026-04-05 17:28:28,616 - INFO - [out#0/segment @ 000001c902b14900] video:3936706KiB audio:139110KiB subtitle:0KiB other streams:0KiB global headers:0KiB muxing overhead: unknown
2026-04-05 17:28:28,617 - INFO - frame=178065 fps=2462 q=-1.0 Lsize=N/A time=01:38:55.50 bitrate=N/A speed=82.1x elapsed=0:01:12.33
2026-04-05 17:28:28,641 - INFO - Archivos generados: 21
2026-04-05 17:28:28,641 - INFO - Proceso finalizado
2026-04-05 17:39:45,331 - INFO - Tamańo objetivo de segmento: 190.0 MB
2026-04-05 17:39:45,346 - INFO - FFmpeg y FFprobe encontrados
2026-04-05 17:39:50,544 - INFO - Archivo seleccionado: D:/03_SANDBOX/Testing_Software/SegmentadorVideo_PY/260405.mp4
2026-04-05 17:39:50,846 - INFO - Duración del video: 5935.5 segundos
2026-04-05 17:39:50,846 - INFO - Tamańo archivo: 3982.31 MB
2026-04-05 17:39:50,846 - INFO - Segmento estimado en segundos: 283.18844792396965
2026-04-05 17:39:50,846 - INFO - Archivos de salida: D:\03_SANDBOX\Testing_Software\SegmentadorVideo_PY\260405_%03d.mp4
2026-04-05 17:41:47,884 - INFO - Proceso completado correctamente
